PathFileType	4	(X/Y/Z)	C:/Users/opensim2020/Desktop/walking_exp_matlab/subject01_walking11_straight_03.trc	
DataRate	CameraRate	NumFrames	NumMarkers	Units	OrigDataRate	OrigDataStartFrame	OrigNumFrames	
100.00	100.00	4	44	mm	100.00	2954	338	
Frame#	Time	LFHD			RFHD			LBHD			RBHD			C7			T10			CLAV			STRN			RBAK			LSHO			LUPA			LELB			LFRM			LWRA			LWRB			LFIN			RSHO			RUPA			RELB			RFRM			RWRA			RWRB			RFIN			LASI			RASI			LPSI			RPSI			LTHI			LKNE			LTIB			LANK			LHEE			LTOE			RTHI			RKNE			RTIB			RANK			RHEE			RTOE			*39			*40			*41			*42			*43			
		X1	Y1	Z1	X2	Y2	Z2	X3	Y3	Z3	X4	Y4	Z4	X5	Y5	Z5	X6	Y6	Z6	X7	Y7	Z7	X8	Y8	Z8	X9	Y9	Z9	X10	Y10	Z10	X11	Y11	Z11	X12	Y12	Z12	X13	Y13	Z13	X14	Y14	Z14	X15	Y15	Z15	X16	Y16	Z16	X17	Y17	Z17	X18	Y18	Z18	X19	Y19	Z19	X20	Y20	Z20	X21	Y21	Z21	X22	Y22	Z22	X23	Y23	Z23	X24	Y24	Z24	X25	Y25	Z25	X26	Y26	Z26	X27	Y27	Z27	X28	Y28	Z28	X29	Y29	Z29	X30	Y30	Z30	X31	Y31	Z31	X32	Y32	Z32	X33	Y33	Z33	X34	Y34	Z34	X35	Y35	Z35	X36	Y36	Z36	X37	Y37	Z37	X38	Y38	Z38	X39	Y39	Z39	X40	Y40	Z40	X41	Y41	Z41	X42	Y42	Z42	X43	Y43	Z43	X44	Y44	Z44	

127	1.260	1352.46436	-154.71834	1680.11096	1462.71619	-129.78490	1693.39722	1375.59656	-250.76431	1603.74915	1492.91516	-226.67487	1615.99841	1408.61084	-243.09077	1432.87207	1425.98120	-275.35626	1141.84058	1410.50220	-97.91657	1368.85840	1409.02771	-54.08811	1211.43567	1488.99377	-296.01346	1241.02515	1249.45886	-155.16072	1396.91418	1168.92322	-168.72318	1209.54590	1173.87952	-166.87454	1057.90942	1150.58948	-113.64601	957.06519	1168.45483	-17.85039	856.66010	1147.05688	-71.80817	842.11542	1135.97705	-12.67654	781.85071	1560.59888	-163.82602	1397.94702	1663.85779	-217.52763	1198.25293	1668.72888	-211.82404	1073.86450	1703.10132	-179.19409	959.10327	1691.27869	-91.35295	846.87054	1728.24683	-136.90453	845.99908	1728.05835	-96.23566	769.09161	1323.05127	-105.55226	933.50482	1539.15723	-104.33906	937.22644	1378.42786	-291.93341	947.48248	1524.72681	-287.21979	947.90167	1274.85498	-120.92955	603.63416	1294.31812	-121.61144	469.22379	1287.22998	-169.76329	284.01233	1346.31018	-194.66112	67.19400	1400.81201	-238.43387	37.69747	1338.90625	-48.50424	35.92736	1609.23291	-79.89808	612.22638	1589.86169	-41.21133	458.49060	1589.60376	-162.03485	328.81342	1540.74036	-275.95120	158.69040	1484.27075	-331.55658	141.24219	1555.07532	-175.12265	62.52885	1442.13232	-153.88585	1721.10352	-3101.83398	1973.09155	1023.56738	-3140.73169	2012.52368	1022.04584						 
128	1.270	1352.07080	-148.98029	1680.36072	1462.39978	-124.17662	1693.51819	1375.03796	-245.03087	1603.78906	1492.32129	-221.08763	1615.89563	1407.83032	-237.54274	1433.17041	1424.95386	-270.17715	1142.16187	1409.81384	-92.46297	1368.97485	1408.22546	-48.87793	1211.44568	1487.75732	-290.73148	1241.26819	1248.77893	-149.41289	1397.32312	1167.96680	-162.43996	1210.13635	1172.84094	-160.03564	1058.30054	1149.91345	-105.65156	958.02954	1167.88904	-8.71499	858.76166	1146.47815	-62.39148	843.56580	1135.38818	-2.41873	784.09302	1559.91748	-158.59827	1398.05762	1662.75452	-213.23669	1198.38110	1667.59326	-207.92770	1074.00940	1702.10217	-175.93230	959.14594	1690.72461	-88.58537	846.51184	1727.50916	-134.24438	845.90802	1727.58093	-93.95183	768.86047	1322.16992	-100.93868	933.48859	1538.24268	-99.28067	937.73804	1378.01050	-287.14267	947.76440	1524.34778	-282.20901	948.25311	1274.25061	-118.58260	603.46643	1293.72852	-120.06432	468.97256	1286.98083	-169.08186	283.96191	1346.23938	-194.72801	67.17582	1400.97119	-238.20602	37.73774	1338.75928	-48.50103	35.75953	1608.68677	-72.50127	613.53497	1588.88806	-32.23745	460.19504	1588.58752	-149.30510	326.73334	1539.42822	-257.66095	152.83789	1483.29919	-311.74323	133.08115	1554.67090	-153.38998	60.60706	1441.83362	-148.36639	1721.26184	-3101.91968	1973.06555	1023.63580	-3140.65356	2012.56274	1022.11169						 
129	1.280	1351.72119	-143.25885	1680.51184	1462.08630	-118.61288	1693.56140	1374.48035	-239.30264	1603.85864	1491.78528	-215.45163	1615.79712	1407.03979	-231.92403	1433.42920	1424.01746	-265.05814	1142.45032	1409.19653	-86.97430	1369.01660	1407.53711	-43.58388	1211.45239	1486.70667	-285.51352	1241.50098	1248.15479	-143.63753	1397.65100	1167.08557	-156.24429	1210.65173	1171.76489	-153.27885	1058.71497	1149.06628	-97.43828	958.92236	1167.46240	0.50005	860.93683	1145.97375	-53.00163	845.02319	1134.95667	7.58473	786.31610	1559.29773	-153.18431	1398.14636	1661.66760	-208.98291	1198.46265	1666.51807	-204.04575	1074.13892	1701.16101	-172.67918	959.16913	1690.16406	-85.79831	846.15735	1726.75830	-131.68384	845.80286	1727.05750	-91.59163	768.56378	1321.13623	-96.14474	933.44482	1537.40955	-94.09715	938.22260	1377.65991	-282.30237	947.92401	1523.98462	-277.01663	948.48273	1273.74341	-116.19216	603.24432	1293.30322	-118.49552	468.66574	1286.77563	-168.44025	284.00726	1346.12463	-195.04491	67.36369	1401.05872	-237.88100	37.54414	1338.57520	-48.45702	35.46801	1608.18652	-65.20174	614.74072	1587.91406	-23.85727	461.50897	1587.60083	-136.50951	324.41345	1538.43506	-238.93253	147.05919	1481.67529	-292.65823	125.84708	1554.47388	-131.40588	58.59459	1441.45630	-142.79800	1721.21021	-3101.85352	1973.15820	1023.50610	-3140.74414	2012.44946	1021.98627						 
130	1.290	1351.41785	-137.48846	1680.58264	1461.81213	-112.98343	1693.55396	1373.92810	-233.48634	1603.86389	1491.34570	-209.78642	1615.74243	1406.38440	-226.24969	1433.66199	1423.20703	-259.83545	1142.72095	1408.66528	-81.44629	1369.03394	1406.83179	-38.34296	1211.36621	1485.71594	-280.23206	1241.67297	1247.58008	-137.88573	1397.91858	1166.29041	-149.89583	1211.12048	1170.73376	-146.28603	1059.02417	1148.38879	-89.47878	959.81445	1167.10486	9.60084	862.95190	1145.50513	-43.58178	846.35413	1134.78894	17.67720	788.33942	1558.67542	-147.81972	1398.13684	1660.62622	-204.72813	1198.51184	1665.49658	-200.18510	1074.26392	1700.21045	-169.50615	959.12769	1689.61914	-82.95634	845.77246	1725.94531	-129.09534	845.48651	1726.58838	-89.28427	768.25800	1320.48572	-91.57832	933.36121	1536.62988	-88.82539	938.62646	1377.41162	-277.49542	948.15405	1523.63464	-271.80142	948.70435	1273.35217	-113.64841	602.98395	1292.80615	-116.81075	468.39047	1286.70557	-167.71658	283.94232	1346.21228	-194.60229	67.24194	1401.13599	-238.24869	37.62983	1338.45276	-48.16483	35.28027	1607.75098	-58.20072	615.76257	1587.15356	-15.52472	462.93845	1586.85925	-123.85574	322.14471	1537.79077	-219.71933	141.37323	1480.70386	-272.61072	117.85190	1554.53784	-109.22277	56.88607	1441.37122	-137.07027	1721.38818	-3101.83423	1973.17822	1023.35925	-3140.76416	2012.56067	1022.15991						 
